<svg width="212" height="205" viewBox="0 0 212 205" fill="none" xmlns="http://www.w3.org/2000/svg">
<circle cx="114.5" cy="109.5" r="95.5" fill="#7E83DF"/>
<path fill-rule="evenodd" clip-rule="evenodd" d="M161.935 76.1291C163.317 77.5121 164.094 79.3876 164.094 81.3432C164.094 83.2988 163.317 85.1743 161.935 86.5573L106.656 141.835C105.926 142.566 105.059 143.146 104.104 143.541C103.15 143.937 102.126 144.14 101.093 144.14C100.06 144.14 99.0369 143.937 98.0823 143.541C97.1278 143.146 96.2605 142.566 95.53 141.835L68.0655 114.376C67.3611 113.695 66.7993 112.882 66.4127 111.982C66.0262 111.082 65.8228 110.114 65.8143 109.135C65.8058 108.156 65.9924 107.185 66.3632 106.278C66.734 105.372 67.2816 104.549 67.9741 103.856C68.6665 103.164 69.49 102.616 70.3963 102.245C71.3027 101.874 72.2738 101.688 73.2531 101.696C74.2323 101.705 75.2001 101.908 76.0999 102.295C76.9996 102.681 77.8134 103.243 78.4937 103.948L101.091 126.545L151.501 76.1291C152.186 75.4437 152.999 74.9001 153.895 74.5292C154.79 74.1582 155.749 73.9673 156.718 73.9673C157.687 73.9673 158.646 74.1582 159.541 74.5292C160.436 74.9001 161.25 75.4437 161.935 76.1291Z" fill="white"/>
<circle cx="37" cy="37" r="37" fill="#E34C77"/>
<circle cx="193" cy="177" r="19" fill="#77D7DA"/>
</svg>
